<svg id="a75d69e6-d07c-4db3-9c83-72b2470e5561" xmlns="http://www.w3.org/2000/svg" viewBox="0 0 1108 731.18"><defs><style>.cls-1{fill:#cfcfe2;}.cls-2{fill:#3f3d56;}.cls-3{opacity:0.1;}.cls-10,.cls-3,.cls-7{isolation:isolate;}.cls-4{fill:none;stroke:#3f3d56;stroke-miterlimit:10;stroke-width:4px;}.cls-5{fill:#38d39f;}.cls-6{fill:#656380;}.cls-7{opacity:0.2;}.cls-8{fill:#53c1de;}.cls-9{fill:#a0616a;}.cls-10{opacity:0.03;}</style></defs><title>react</title><path class="cls-1" d="M767.68,330.79l6.89-2.7,2-.81a59.85,59.85,0,0,1,15.28-115.77l-4.8,24.2,18.22-23.92h.16a59.87,59.87,0,0,1,51.16,67.45c-.15,1.13-.39,2.23-.6,3.34,5.61-4.43,10.87-9.32,14.81-15,8-11.54,10.71-25.76,13.47-43.17,5.47-34.48,10.4-69.34,14.84-104.18a59.83,59.83,0,0,1-42-65.36c.25-1.82.6-3.59,1-5.34.1-.44.2-.88.31-1.31.43-1.69.91-3.35,1.47-5,.09-.27.21-.52.3-.78a36.11,36.11,0,0,1,1.65-4c.22-.5.44-1,.67-1.47.69-1.43,1.42-2.83,2.22-4.19.27-.45.56-.88.83-1.33.62-1,1.27-2,1.94-2.93.36-.5.71-1,1.08-1.49l.27-.39h0a59.82,59.82,0,0,1,74.64-17l-6.24,31.49,18-23.64a59.5,59.5,0,0,1,16.32,68.62h.07c-.17.4-.38.78-.55,1.18-.33.74-.67,1.47-1,2.2-.46.93-1,1.84-1.45,2.74-.38.68-.75,1.36-1.16,2-.59,1-1.23,1.9-1.87,2.83-.38.54-.73,1.1-1.12,1.63a49.89,49.89,0,0,1-3.26,4c-.4.45-.83.86-1.25,1.3-.81.86-1.62,1.71-2.48,2.52-.53.5-1.09,1-1.64,1.46-.79.7-1.6,1.38-2.43,2-.59.47-1.19.92-1.79,1.36-.87.63-1.75,1.22-2.64,1.81-.6.39-1.2.78-1.81,1.15-1,.61-2.05,1.17-3.1,1.72-.53.27-1,.57-1.59.83-1.58.77-3.2,1.48-4.85,2.11-.31.12-.64.21-.95.32a42.35,42.35,0,0,1-4.18,1.35c-.61.17-1.23.31-1.85.46-1.15.28-2.31.54-3.48.76q-1,.18-2.07.33c-1.15.17-2.31.3-3.48.4-.69.06-1.37.12-2.07.16-1.26.06-2.53.07-3.8.06h-.25q-2.82,22-5.92,44a59.82,59.82,0,0,1,83.68-12.46c.92.68,1.83,1.4,2.72,2.14l-15.68,26.58,25.21-16.59a59.69,59.69,0,0,1,11.5,44.16,58.54,58.54,0,0,1-4.5,15.94,59.83,59.83,0,0,1-111.19-4c-.23,1.48-.45,3-.68,4.46-2.44,15.35-5.47,34.46-16.23,50-7.29,10.56-17.33,18.36-27.09,25.22q-9.52,6.7-19.48,12.77a59.93,59.93,0,0,1-24.53,13.74q-16,8.19-32.69,14.81l-6.95,2.72c-6.25,2.44-12.65,4.94-19,7.6,1,.09,2,.17,3,.3a59.91,59.91,0,0,1,50.86,49.05l-42.31,23.11,42.18-1.89A59.25,59.25,0,0,1,797,450.13a59.87,59.87,0,0,1-82.7,11.74l2.1,3.91c1.4,2.58,2.78,5.15,4.12,7.7,18.33,34.74,19.66,64.74,3.75,84.49l-13-10.45c15.49-19.22,3.2-49.77-5.5-66.27-1.32-2.5-2.68-5-4-7.56C690,451.86,676.65,427.12,682,400.79,690,361.09,733.05,344.29,767.68,330.79Z"/><path class="cls-1" d="M269.6,519l-5.38-2.11c-.52-.2-1-.43-1.54-.63a46.75,46.75,0,0,0-11.94-90.42l3.75,18.9-14.22-18.68h-.13a46.75,46.75,0,0,0-40,52.66v0c.12.89.31,1.74.47,2.61a55.89,55.89,0,0,1-11.56-11.73c-6.23-9-8.37-20.12-10.53-33.71-4.23-26.93-8.07-54.15-11.52-81.33a46.72,46.72,0,0,0,32.77-51c-.2-1.42-.47-2.8-.79-4.17l-.24-1c-.34-1.32-.71-2.62-1.15-3.88-.07-.21-.16-.41-.24-.61-.39-1.07-.82-2.12-1.28-3.15-.18-.38-.35-.77-.53-1.15-.54-1.11-1.11-2.2-1.73-3.26-.21-.36-.44-.7-.65-1-.49-.78-1-1.55-1.52-2.29-.28-.39-.55-.79-.84-1.17l-.21-.3h0a46.75,46.75,0,0,0-58.29-13.32l4.88,24.6-14.07-18.46A46.48,46.48,0,0,0,110.36,328h0c.13.31.29.61.43.92.26.58.52,1.15.8,1.72s.74,1.43,1.14,2.13c.29.54.58,1.07.9,1.59.46.75,1,1.48,1.46,2.21.3.42.57.86.88,1.27.8,1.08,1.65,2.12,2.54,3.13.31.35.65.67,1,1,.63.67,1.27,1.33,1.94,2,.41.4.85.77,1.28,1.14q.93.82,1.89,1.59c.46.36.93.71,1.4,1.06.68.49,1.37,1,2.06,1.41.47.31.94.61,1.42.9.79.48,1.6.91,2.42,1.34.42.22.82.45,1.24.66,1.24.6,2.5,1.15,3.79,1.64.24.1.5.16.74.25,1.07.39,2.16.75,3.27,1.06.47.13,1,.24,1.44.35.9.22,1.8.43,2.72.6l1.61.26c.9.13,1.81.23,2.72.31.54.05,1.07.09,1.62.12,1,.05,2,.06,3,.05h.19q2.21,17.22,4.62,34.41a46.7,46.7,0,0,0-65.32-9.83c-.74.54-1.46,1.1-2.16,1.69l12.14,20.64L83.81,390.64a46.56,46.56,0,0,0-9,34.49,45.86,45.86,0,0,0,3.53,12.46,46.73,46.73,0,0,0,86.84-3.12c.18,1.15.35,2.32.53,3.48,1.9,12,4.27,26.92,12.67,39.08,5.7,8.24,13.54,14.33,21.16,19.69q7.44,5.23,15.21,10a46.82,46.82,0,0,0,19.16,10.74c8.32,4.26,16.84,8.14,25.54,11.56l5.42,2.13c4.88,1.9,9.88,3.85,14.81,5.93-.78.07-1.57.13-2.36.24a46.77,46.77,0,0,0-39.72,38.27l33,18-32.94-1.47a46.79,46.79,0,0,0,73.57,29.2c-.55,1-1.09,2-1.64,3-1.09,2-2.17,4-3.22,6-14.31,27.13-15.35,50.57-2.92,66l10.13-8.16c-12.1-15-2.5-38.87,4.3-51.76,1-2,2.09-3.92,3.16-5.9,9.19-17,19.61-36.37,15.46-56.94C330.29,542.67,296.64,529.59,269.6,519Z"/><ellipse class="cls-2" cx="554" cy="707.68" rx="554" ry="23.5"/><ellipse class="cls-3" cx="554" cy="707.68" rx="554" ry="23.5"/><ellipse class="cls-2" cx="554" cy="694.68" rx="554" ry="23.5"/><path class="cls-4" d="M85,686.32c-3-5.51.4-12.26,4.28-17.18s8.61-10,8.51-16.29c-.14-9-9.7-14.31-17.33-19.08A84.78,84.78,0,0,1,64.9,621.26a23.09,23.09,0,0,1-4.78-6.4c-1.58-3.52-1.53-7.52-1.43-11.38q.5-19.26,1.9-38.48"/><path class="cls-5" d="M46.11,564.29a14,14,0,0,1,7-11.49L56.25,559l-.09-7.52a13.64,13.64,0,0,1,4.62-.56,14,14,0,1,1-14.67,13.36Z"/><path class="cls-5" d="M71.14,659.29a14,14,0,0,0,26.5-5.76,13.81,13.81,0,0,0-.91-5.69,14,14,0,0,0-26.27.15l8.77,7.13-9.64-2.24A13.88,13.88,0,0,0,71.14,659.29Z"/><path class="cls-5" d="M78.07,632a14,14,0,0,0,4.46-27.54l.07,5.79L79.42,604h0a14,14,0,1,0-1.31,28Z"/><path class="cls-5" d="M44,609.37a14,14,0,1,0,1.32-28h0a13.93,13.93,0,0,0-7.52,1.78l2.48,6.8-5.11-4.9a14,14,0,0,0-4.53,9.69,13.15,13.15,0,0,0,.36,3.85A14,14,0,0,0,44,609.37Z"/><path class="cls-3" d="M48,568c3.24.36,6.39,1.37,9.64,1.57s6.82-.58,8.88-3.1c1.11-1.37,1.66-3.09,2.59-4.57a10.08,10.08,0,0,1,3.54-3.33,14,14,0,0,1-25.26,12.08,14.16,14.16,0,0,1-1-2.76C46.94,567.94,47.47,568,48,568Z"/><path class="cls-3" d="M44,609.37a14,14,0,0,0,13.35-20,10.4,10.4,0,0,0-2.82,2.83c-1,1.51-1.61,3.25-2.78,4.64-2.19,2.57-5.92,3.41-9.31,3.25s-6.66-1.11-10-1.42c-.47,0-.94-.08-1.41-.09A14,14,0,0,0,44,609.37Z"/><path class="cls-3" d="M78.07,632a14,14,0,0,0,13.47-19.76,11.3,11.3,0,0,0-3,2.85c-1.09,1.54-1.77,3.31-3,4.73-2.36,2.64-6.34,3.57-9.93,3.48s-6.82-.93-10.28-1.19A14,14,0,0,0,78.07,632Z"/><path class="cls-3" d="M71.14,659.29a14,14,0,0,0,26.5-5.76,13.81,13.81,0,0,0-.91-5.69,14.11,14.11,0,0,0-3.08,2.74c-1.34,1.63-2.21,3.47-3.76,5-2.87,2.82-7.5,4-11.62,4.09A63,63,0,0,1,71.14,659.29Z"/><path class="cls-6" d="M106.19,680s-11.08-.34-14.41-2.72-17-5.22-17.87-1.4-16.65,19-4.14,19.06,29.06-2,32.39-4S106.19,680,106.19,680Z"/><path class="cls-7" d="M69.54,693.59c12.51.1,29.06-2,32.4-4,2.53-1.54,3.54-7.09,3.88-9.65h.37s-.7,8.93-4,11-19.89,4.08-32.39,4c-3.61,0-4.86-1.31-4.79-3.22C65.48,692.85,66.86,693.59,69.54,693.59Z"/><path class="cls-4" d="M1055,695.32c-3-5.51.4-12.26,4.28-17.18s8.61-10,8.51-16.29c-.14-9-9.7-14.31-17.33-19.08a84.78,84.78,0,0,1-15.56-12.51,23.09,23.09,0,0,1-4.78-6.4c-1.58-3.52-1.53-7.52-1.43-11.38q.49-19.26,1.9-38.48"/><path class="cls-5" d="M1016.11,573.29a14,14,0,0,1,7-11.49l3.14,6.21-.09-7.52a13.64,13.64,0,0,1,4.62-.56,14,14,0,1,1-14.68,13.36Z"/><path class="cls-5" d="M1041.14,668.29a14,14,0,0,0,26.5-5.76,13.81,13.81,0,0,0-.91-5.69,14,14,0,0,0-26.27.15l8.77,7.13-9.64-2.24A13.88,13.88,0,0,0,1041.14,668.29Z"/><path class="cls-5" d="M1048.07,641a14,14,0,0,0,4.46-27.54l.07,5.79-3.18-6.29h0a14,14,0,0,0-1.31,28Z"/><path class="cls-5" d="M1014,618.37a14,14,0,1,0-6.2-26.22l2.48,6.8-5.11-4.9a14,14,0,0,0-4.53,9.69,13.15,13.15,0,0,0,.36,3.85A14,14,0,0,0,1014,618.37Z"/><path class="cls-3" d="M1018,577c3.24.36,6.39,1.37,9.64,1.57s6.82-.58,8.88-3.1c1.11-1.37,1.66-3.09,2.59-4.57a10.08,10.08,0,0,1,3.54-3.33,14,14,0,0,1-25.26,12.08,14.16,14.16,0,0,1-1-2.76C1016.94,576.94,1017.47,577,1018,577Z"/><path class="cls-3" d="M1014,618.37a14,14,0,0,0,13.35-20,10.4,10.4,0,0,0-2.82,2.83c-1,1.51-1.61,3.25-2.78,4.64-2.19,2.57-5.92,3.41-9.31,3.25s-6.66-1.11-10-1.42c-.47,0-.94-.08-1.41-.09A14,14,0,0,0,1014,618.37Z"/><path class="cls-3" d="M1048.07,641a14,14,0,0,0,13.47-19.76,11.3,11.3,0,0,0-3,2.85c-1.09,1.54-1.77,3.31-3,4.73-2.36,2.64-6.34,3.57-9.93,3.48s-6.82-.93-10.28-1.19A14,14,0,0,0,1048.07,641Z"/><path class="cls-3" d="M1041.14,668.29a14,14,0,0,0,26.5-5.76,13.81,13.81,0,0,0-.91-5.69,14.11,14.11,0,0,0-3.08,2.74c-1.34,1.63-2.21,3.47-3.76,5-2.87,2.82-7.5,4-11.62,4.09A63,63,0,0,1,1041.14,668.29Z"/><path class="cls-6" d="M1076.19,689s-11.08-.34-14.41-2.72-17-5.22-17.87-1.4-16.65,19-4.14,19.06,29.06-2,32.39-4S1076.19,689,1076.19,689Z"/><path class="cls-7" d="M1039.54,702.59c12.51.1,29.06-2,32.4-4,2.53-1.54,3.54-7.09,3.88-9.65h.37s-.7,8.93-4,11-19.89,4.08-32.39,4c-3.61,0-4.86-1.31-4.79-3.22C1035.48,701.85,1036.86,702.59,1039.54,702.59Z"/><path class="cls-8" d="M745.6,331.15h0q-9.92-3.4-20-6.3,1.66-6.8,3.09-13.65C743.8,237.69,733.9,178.47,700.09,159c-32.42-18.7-85.44.8-139,47.39q-7.92,6.91-15.47,14.2-5.07-4.84-10.3-9.51C479.21,161.23,423,140.24,389.18,159.79c-32.39,18.75-42,74.42-28.35,144.09q2,10.35,4.59,20.58c-7.95,2.26-15.64,4.67-23,7.24-65.79,22.89-107.81,58.89-107.81,96.18,0,38.51,45.11,77.14,113.64,100.56q8.34,2.84,16.8,5.26-2.74,11-4.88,22.18c-13,68.46-2.84,122.82,29.46,141.45,33.37,19.26,89.37-.54,143.89-48.2,4.31-3.77,8.63-7.77,13-12q8.18,7.89,16.79,15.32c52.82,45.45,105,63.81,137.26,45.12,33.33-19.29,44.16-77.69,30.1-148.73q-1.6-8.14-3.73-16.61,5.91-1.74,11.56-3.61c71.24-23.6,117.6-61.76,117.6-100.79C856.1,390.45,812.72,354.26,745.6,331.15ZM578.55,226.4c45.88-39.93,88.76-55.69,108.3-44.42h0c20.81,12,28.9,60.4,15.83,123.87q-1.29,6.19-2.8,12.35a635.54,635.54,0,0,0-83.09-13.13,624.71,624.71,0,0,0-52.53-65.56Q571.26,232.78,578.55,226.4ZM435.64,365.15q-9.15,15.87-17.55,32.14c-7.73-18.33-14.34-36.36-19.74-53.77,17.73-4,36.64-7.21,56.34-9.68q-9.92,15.44-19.07,31.31Zm-17.49,94.58q8.43,16.29,17.61,32.16,9.35,16.19,19.47,31.91h0A564.8,564.8,0,0,1,398,514.59C403.49,496.88,410.25,478.46,418.15,459.73Zm14-31.22q12.27-25.53,26.43-50.1t30.13-48c18.49-1.4,37.43-2.13,56.59-2.13s38.22.74,56.69,2.14q15.81,23.37,30,47.81t26.79,49.87q-12.45,25.62-26.71,50.3l0,0Q618,503,602.27,526.54c-18.44,1.32-37.49,2-56.91,2s-38.15-.6-56.27-1.78Q473,503.26,458.7,478.59T432.19,428.51ZM655.08,491.7q9.38-16.26,18-32.92A561.34,561.34,0,0,1,694,513.44a561,561,0,0,1-58,9.89Q645.86,507.7,655.08,491.7Zm17.8-94.39Q664.27,381,655,365h0q-9.11-15.74-18.89-31.08c19.83,2.51,38.82,5.83,56.66,9.91A566,566,0,0,1,672.88,397.31ZM545.64,258.51h0a569.49,569.49,0,0,1,36.57,44.14q-36.71-1.72-73.45,0C520.83,286.72,533.2,271.92,545.64,258.51ZM402.48,182.78c20.79-12,66.76,5.12,115.22,48.15,3.1,2.75,6.21,5.63,9.32,8.6a636.65,636.65,0,0,0-52.93,65.52,648.9,648.9,0,0,0-82.93,12.89q-2.39-9.53-4.27-19.15h0C375.21,239.09,383,194.06,402.48,182.78Zm-30.3,325.34q-7.74-2.21-15.34-4.8c-30.31-10.36-55.33-23.82-72.49-38.5-15.41-13.2-23.19-26.31-23.19-36.94,0-22.63,33.74-51.5,90-71.11q10.6-3.69,21.39-6.73a638,638,0,0,0,30.29,78.48A647.25,647.25,0,0,0,372.18,508.12Zm143.87,121c-24.11,21.08-48.28,36-69.57,43.55h0c-19.14,6.76-34.38,6.95-43.59,1.64-19.6-11.31-27.75-55-16.63-113.5q2-10.37,4.53-20.63a625.63,625.63,0,0,0,83.75,12.13,645.12,645.12,0,0,0,53.35,65.9Q522.1,623.84,516.05,629.14Zm30.33-30h0A569.92,569.92,0,0,1,509,554.38q17.85.71,36.36.71,19,0,37.51-.84A564.7,564.7,0,0,1,546.38,599.12ZM707.6,636.05c-3.7,20-11.14,33.25-20.34,38.58-19.59,11.33-61.47-3.4-106.64-42.27q-7.77-6.69-15.63-14.25A625.56,625.56,0,0,0,617.08,552a619.93,619.93,0,0,0,84.17-13q1.9,7.68,3.37,15l0,.08C710.82,585.46,711.7,613.86,707.6,636.05Zm22.52-132.58c-3.4,1.13-6.88,2.21-10.44,3.27A622.31,622.31,0,0,0,688.21,428a623,623,0,0,0,30.25-77.58c6.35,1.84,12.53,3.78,18.47,5.83,57.51,19.79,92.59,49.06,92.59,71.62C829.52,451.88,791.63,483.09,730.12,503.47Z"/><path class="cls-8" d="M545.34,372.38a55.5,55.5,0,1,1-55.5,55.5,55.5,55.5,0,0,1,55.5-55.5h0"/><path class="cls-2" d="M559.26,20.4a16.6,16.6,0,1,1-16.6-16.6h0a16.53,16.53,0,0,1,16.6,16.44Z"/><path class="cls-2" d="M529.4,24.59A16.61,16.61,0,0,1,541.89.05a16.6,16.6,0,0,0-1.16,33.18,17,17,0,0,0,2.57-.11A16.59,16.59,0,0,1,529.4,24.59Z"/><rect class="cls-2" x="521.91" y="43.52" width="44.47" height="69.37"/><rect class="cls-3" x="521.91" y="43.52" width="44.47" height="69.37"/><path class="cls-9" d="M451.66,295.2s-4.75,13.05-16,14.83-17.79,4.74-17.79,4.74L444.55,332l14.23-1.78s1.78-18.38,7.71-22.53S451.66,295.2,451.66,295.2Z"/><path class="cls-9" d="M644.34,295.2s4.75,13.05,16,14.83,17.79,4.74,17.79,4.74L651.45,332l-14.23-1.78s-1.78-18.38-7.71-22.53S644.34,295.2,644.34,295.2Z"/><path class="cls-2" d="M514.5,180.18s-7.11,3.56-9.48,10.68c0,0-13,4.15-20.16,15.41,0,0-8.9,9.49-10.08,14.23S460,253.7,460,253.7s-13.64,44.47-20.75,49.21c0,0,22.53-4.74,26.68,17.79,0,0,5.33,0,11.26-20.75s20.16-46.25,20.16-46.25,4.74-17.78,8.89-20.75,10.67-16.6,16.6-13,45.06-.6,45.06-.6S591,230,591.58,237.1s4.74,7.71,5.33,13.64,22.53,52.76,22.53,52.76,4.15,13,5.34,16c0,0,13-31.42,30.24-13.63,0,0-.6-11.86-5.93-19S620.63,224,620.63,224s-2.37-8.3-4.74-10.67S595.13,192,588.61,192c0,0-3.55-8.89-7.7-10.08Z"/><path class="cls-2" d="M461.14,326a28.9,28.9,0,0,1-28.22-3.79,56.31,56.31,0,0,0-12.59-7.3c-6.29-2.54-13.81-4.42-16.1-.17-4.15,7.71,50.39,26.68,50.39,26.68S461.74,337.3,461.14,326Z"/><path class="cls-2" d="M634.86,326a28.9,28.9,0,0,0,28.22-3.79,56.31,56.31,0,0,1,12.59-7.3c6.29-2.54,13.81-4.42,16.1-.17,4.15,7.71-50.39,26.68-50.39,26.68S634.26,337.3,634.86,326Z"/><path class="cls-9" d="M533.88,82.67c-.22,2.06-.9,4.29-2.66,5.38-1.44.9-3.26.83-4.92,1.17A11.48,11.48,0,0,0,518.48,96a17.55,17.55,0,0,0-.75,10.55,38.75,38.75,0,0,0,1.52,5.06c1.74,4.92,3.84,9.8,7.09,13.89a59,59,0,0,0,9.3,8.77c2.11,1.72,4.29,3.47,6.89,4.28a21.41,21.41,0,0,0,5.4.72c2.25.1,4.65.17,6.6-.95,3-1.73,3.89-5.55,5.52-8.62,1.38-2.6,3.44-4.81,4.73-7.46a29.27,29.27,0,0,0,2-6.52l2.77-12.3c1-4.47,1.92-9.51-.59-13.34a2.27,2.27,0,0,0-.74-.77,2.81,2.81,0,0,0-1.52-.15,16.42,16.42,0,0,1-9.15-2.09,3.89,3.89,0,0,1-1.15-.9,4.72,4.72,0,0,1-.7-2.12,22.2,22.2,0,0,0-1.28-4.45,2.92,2.92,0,0,0-.87-1.34,3.11,3.11,0,0,0-1.41-.47,114.47,114.47,0,0,0-12.93-1.35c-1.42-.07-3.56-.64-4.54.62S534,81.17,533.88,82.67Z"/><path class="cls-3" d="M533.88,82.67c-.22,2.06-.9,4.29-2.66,5.38-1.44.9-3.26.83-4.92,1.17A11.48,11.48,0,0,0,518.48,96a17.55,17.55,0,0,0-.75,10.55,38.75,38.75,0,0,0,1.52,5.06c1.74,4.92,3.84,9.8,7.09,13.89a59,59,0,0,0,9.3,8.77c2.11,1.72,4.29,3.47,6.89,4.28a21.41,21.41,0,0,0,5.4.72c2.25.1,4.65.17,6.6-.95,3-1.73,3.89-5.55,5.52-8.62,1.38-2.6,3.44-4.81,4.73-7.46a29.27,29.27,0,0,0,2-6.52l2.77-12.3c1-4.47,1.92-9.51-.59-13.34a2.27,2.27,0,0,0-.74-.77,2.81,2.81,0,0,0-1.52-.15,16.42,16.42,0,0,1-9.15-2.09,3.89,3.89,0,0,1-1.15-.9,4.72,4.72,0,0,1-.7-2.12,22.2,22.2,0,0,0-1.28-4.45,2.92,2.92,0,0,0-.87-1.34,3.11,3.11,0,0,0-1.41-.47,114.47,114.47,0,0,0-12.93-1.35c-1.42-.07-3.56-.64-4.54.62S534,81.17,533.88,82.67Z"/><path class="cls-5" d="M525.85,89.74a26.93,26.93,0,0,0-7.13-1.12c-5.72-.14-11.84,1.83-15.14,6.5a15.33,15.33,0,0,0-2.29,11.47,23.63,23.63,0,0,0,5.2,10.66,31.85,31.85,0,0,1,4,5.24c1.58,3,1.63,6.59,2.06,10,1,8.12,4.46,15.75,5.83,23.82s.19,17.42-6.18,22.55c-1.07.86-2.37,1.77-2.46,3.14-.14,2.19,2.71,3.12,4.9,3.33,6.55.62,13.27,1.23,19.63-.46,2.63-.7,5.17-1.79,7.85-2.29,6.8-1.27,13.64,1.34,20.45,2.59a90.88,90.88,0,0,0,14.91,1.21,8,8,0,0,0,3.43-.45,2.76,2.76,0,0,0,1.74-2.74,4.79,4.79,0,0,0-1.18-2c-3.44-4.25-4.49-9.9-5.43-15.29l-3.15-18.11c-1.69-9.68-3.26-20.2,1.32-28.89,3.29-6.25,9.36-10.65,12.83-16.8a9.81,9.81,0,0,0,1.55-6.28c-.52-3.09-3.31-5.3-6.17-6.59A23.19,23.19,0,0,0,565,88.59c.1,4.33-1,8.71-1.71,13l-1.21,7a89.16,89.16,0,0,1-2.71,12.2,12.85,12.85,0,0,1-2.17,4.42,11.36,11.36,0,0,1-3.83,2.79,22.86,22.86,0,0,1-10.14,2.32,13.62,13.62,0,0,1-4.48-.69,19.07,19.07,0,0,1-6.17-4.34,10.14,10.14,0,0,1-1.63-1.77,9.93,9.93,0,0,1-1.11-2.67,55.42,55.42,0,0,1-1.91-7.48c-.3-1.94-.4-3.91-.54-5.87C527,101.71,527,95.31,525.85,89.74Z"/><path class="cls-9" d="M519.84,204.49s-2.37,31.43,12.45,36.76,1.78-26.09,1.78-26.09l-4.75-9.48Z"/><path class="cls-9" d="M570.23,204.49s2.37,31.43-12.45,36.76S556,215.16,556,215.16l4.75-9.48Z"/><path class="cls-3" d="M506.79,99.59l-4.74,7.71s4.15,26.68,4.74,31.42a62.31,62.31,0,0,0,2.38,10.08s.59,14.23.59,19.57,3,14.23,3,14.23a65.2,65.2,0,0,0,3,14.82c2.37,6.52,4.74,14.23,4.74,14.23s3-8.3,14.82,4.15a7.19,7.19,0,0,0,0-10.08s-3.55-16-3.55-24.31-6.53-48-6.53-48S521,88.29,506.79,99.59Z"/><path class="cls-5" d="M505.61,99l-4.74,7.71s4.15,26.68,4.74,31.42A61.3,61.3,0,0,0,508,148.17s.59,14.23.59,19.56,3,14.23,3,14.23a64.67,64.67,0,0,0,3,14.82c2.37,6.53,4.75,14.23,4.75,14.23s3-8.3,14.82,4.15a7.18,7.18,0,0,0,0-10.07s-3.56-16-3.56-24.31-6.52-48-6.52-48S519.84,87.69,505.61,99Z"/><path class="cls-3" d="M583.87,94.81l3,3.53s3.49,20.18-4.22,45.68l-2.37,23.12s-4.15,19.57-4.74,24.31-.59,5.33-1.78,7.11a2.28,2.28,0,0,0,0,3l-3.56,13s-5.33-6.52-16,1.78c0,0-3-4.74-.6-8.89s2.37-5.93,1.78-7.12,2.37-7.11,2.37-8.3,4.18-28.44,4.18-28.44,1.78-26.68,3.56-35.57c1.09-5.47,1.07-17.66.88-26.24-.19-8.94,10.63-13.78,17-7.5A6.63,6.63,0,0,1,583.87,94.81Z"/><path class="cls-5" d="M585.65,93.59l3,3.53s3.49,20.19-4.22,45.68l-2.37,23.12s-4.15,19.57-4.74,24.31-.6,5.34-1.78,7.12a2.28,2.28,0,0,0,0,3l-3.54,13s-5.33-6.53-16,1.77c0,0-3-4.74-.59-8.89s2.37-5.93,1.78-7.11,2.37-7.12,2.37-8.3,4.15-28.46,4.15-28.46,1.78-26.68,3.56-35.58.59-35.57.59-35.57S577.35,84.73,585.65,93.59Z"/><circle class="cls-9" cx="545.92" cy="61.61" r="23.72"/><path class="cls-3" d="M558.29,26a16.6,16.6,0,0,1-31.09.44c9.26-3.73,18.72-.41,18.72-.41C550.65,24.37,554.75,24.52,558.29,26Z"/><path class="cls-2" d="M545.92,27.22s-45.65-16-34.38,61.66c0,0,10.08,6.52,17.78,2.37,0,0-5.33-53.95,15.42-51.58s17.19,50.4,17.19,50.4,11.86,3.55,15.42-3S576.16,16.59,545.92,27.22Z"/><path class="cls-3" d="M544.74,36.11c-14.24-1.62-16.2,23.27-16,39.05.17-15.69,2.81-37,16-35.49,14.81,1.69,17.24,26.66,17.41,40.8C562.32,67.49,560.9,38,544.74,36.11Z"/><path class="cls-3" d="M511.54,85.32a160.5,160.5,0,0,1-1.77-20.53,151.81,151.81,0,0,0,1.77,24.09s10.08,6.52,17.78,2.37c0,0-.12-1.28-.26-3.43C521.39,91.69,511.54,85.32,511.54,85.32Z"/><path class="cls-3" d="M577.35,83.59c-3.32,6.08-13.83,3.41-15.25,3-.07,2.2-.17,3.52-.17,3.52s11.86,3.55,15.42-3c.73-1.34,1.11-5.13,1-10.2C578.25,80.16,577.9,82.59,577.35,83.59Z"/><path class="cls-4" d="M826.73,673c4.74-8.78-.64-19.54-6.82-27.37s-13.73-16-13.57-26c.23-14.35,15.45-22.81,27.62-30.42a134.77,134.77,0,0,0,24.79-19.93c3-3,5.87-6.31,7.62-10.21,2.52-5.6,2.45-12,2.29-18.12q-.79-30.7-3-61.34"/><path class="cls-5" d="M888.74,478.49a22.33,22.33,0,0,0-11.16-18.32l-5,9.9.15-12a22.39,22.39,0,1,0,16,20.41Z"/><path class="cls-5" d="M848.86,629.88a22.36,22.36,0,1,1,1.08-18l-14,11.37,15.37-3.57A22.2,22.2,0,0,1,848.86,629.88Z"/><path class="cls-5" d="M837.81,586.45a22.37,22.37,0,0,1-7.09-43.86l-.12,9.22,5.06-10h.06a22.37,22.37,0,0,1,2.41,44.67l-.32,0Z"/><path class="cls-5" d="M892.11,550.32A22.37,22.37,0,1,1,902,508.46l-4,10.83,8.13-7.8a22.37,22.37,0,0,1-14.07,38.83Z"/><path class="cls-3" d="M885.74,484.45c-5.17.57-10.19,2.18-15.37,2.5s-10.87-.92-14.14-5c-1.77-2.17-2.65-4.91-4.14-7.28a16.06,16.06,0,0,0-5.63-5.3,22.37,22.37,0,0,0,39.88,20.28,22.74,22.74,0,0,0,1.93-5.44C887.42,484.3,886.58,484.36,885.74,484.45Z"/><path class="cls-3" d="M892.11,550.32a22.39,22.39,0,0,1-21.28-31.91,16.37,16.37,0,0,1,4.5,4.51c1.59,2.4,2.56,5.18,4.43,7.39,3.48,4.09,9.44,5.43,14.84,5.19s10.6-1.78,16-2.28c.75-.06,1.5-.11,2.26-.13A22.37,22.37,0,0,1,892.11,550.32Z"/><path class="cls-3" d="M837.81,586.45A22.37,22.37,0,0,1,816.35,555a17.8,17.8,0,0,1,4.73,4.55c1.74,2.45,2.82,5.27,4.86,7.54,3.77,4.2,10.11,5.68,15.83,5.54,5.54-.12,10.87-1.48,16.38-1.9A22.37,22.37,0,0,1,837.81,586.45Z"/><path class="cls-3" d="M848.86,629.88a22.37,22.37,0,0,1-40.78-18.29A22.26,22.26,0,0,1,813,616c2.13,2.59,3.53,5.53,6,7.94,4.57,4.49,12,6.34,18.52,6.51A97.8,97.8,0,0,0,848.86,629.88Z"/><path class="cls-6" d="M793,662.85s17.65-.54,23-4.33,27.16-8.31,28.48-2.24,26.53,30.22,6.6,30.38-46.31-3.1-51.62-6.34S793,662.85,793,662.85Z"/><path class="cls-7" d="M851.4,684.59c-19.93.16-46.31-3.11-51.62-6.34-4-2.47-5.65-11.3-6.19-15.38H793s1.12,14.24,6.43,17.47,31.69,6.5,51.62,6.34c5.75,0,7.74-2.09,7.63-5.12C857.88,683.37,855.69,684.51,851.4,684.59Z"/><path class="cls-1" d="M323,42.86,304.75,54.43l11.08-20.15a18,18,0,0,0-11-3.94h-.3a21.72,21.72,0,0,1-3.78-.28L294.56,34l2.65-4.82A22,22,0,0,1,286.39,21l-11.07,7,7-12.72c-6.48-7.77-15.2-12.54-24.81-12.54-11.51,0-21.76,6.85-28.38,17.52a21.24,21.24,0,0,1-18.76,10.12h-.62c-12.71,0-23,14.41-23,32.19s10.3,32.18,23,32.18a17.18,17.18,0,0,0,8-2c8.29-4.31,19.17-4.39,27.85-.54a29,29,0,0,0,23.68,0c8.62-3.77,19.37-3.69,27.61.54a17.24,17.24,0,0,0,7.93,2c12.71,0,23-14.41,23-32.18A40.8,40.8,0,0,0,323,42.86Z"/><path class="cls-10" d="M288.59,90a34,34,0,0,0-19.72,2.14,29,29,0,0,1-23.67,0c-8.69-3.85-19.57-3.77-27.86.54a17.18,17.18,0,0,1-8,2c-11.29,0-20.68-11.38-22.64-26.38a21.51,21.51,0,0,0,5.64-6.08c6.66-10.66,16.87-17.53,28.38-17.53S242.36,51.36,249,61.91a21.8,21.8,0,0,0,18.76,10.31H268C277,72.23,284.8,79.44,288.59,90Z"/><path class="cls-1" d="M800.07,66.42,791,72.19l5.53-10a9,9,0,0,0-5.51-2h-.14a10.86,10.86,0,0,1-1.89-.14l-3.09,2,1.3-2.46a10.94,10.94,0,0,1-5.4-4.09L776.28,59l3.49-6.34A16.15,16.15,0,0,0,767.4,46.4c-5.75,0-10.86,3.42-14.16,8.74a10.57,10.57,0,0,1-9.36,5h-.31c-6.34,0-11.48,7.19-11.48,16s5.14,16,11.48,16a8.59,8.59,0,0,0,4-1,16.57,16.57,0,0,1,13.89-.27,14.55,14.55,0,0,0,11.81,0,16.59,16.59,0,0,1,13.77.27,8.59,8.59,0,0,0,4,1c6.34,0,11.48-7.18,11.48-16A20.24,20.24,0,0,0,800.07,66.42Z"/><path class="cls-10" d="M782.92,89.91A17,17,0,0,0,773.09,91a14.55,14.55,0,0,1-11.81,0,16.59,16.59,0,0,0-13.9.27,8.59,8.59,0,0,1-4,1c-5.64,0-10.32-5.67-11.3-13.15a10.89,10.89,0,0,0,2.82-3c3.3-5.32,8.42-8.73,14.16-8.73s10.79,3.37,14.09,8.63a10.83,10.83,0,0,0,9.36,5.14h.15C777.15,81.07,781,84.67,782.92,89.91Z"/><path class="cls-1" d="M204.34,215.86,219,225.14,210.12,209a14.52,14.52,0,0,1,8.85-3.15h.23a16.77,16.77,0,0,0,3-.22l5,3.14L225,204.9a17.72,17.72,0,0,0,8.67-6.58l8.87,5.62L237,193.75c5.19-6.22,12.18-10,19.87-10,9.23,0,17.44,5.48,22.75,14a17,17,0,0,0,15,8.11h.5c10.18,0,18.43,11.54,18.43,25.78s-8.25,25.79-18.43,25.79a13.86,13.86,0,0,1-6.43-1.61,26.6,26.6,0,0,0-22.31-.43,23.3,23.3,0,0,1-19,0,26.65,26.65,0,0,0-22.12.43,13.9,13.9,0,0,1-6.35,1.57c-10.19,0-18.44-11.54-18.44-25.79A32.72,32.72,0,0,1,204.34,215.86Z"/><path class="cls-10" d="M231.89,253.59a27.42,27.42,0,0,1,15.8,1.72,23.3,23.3,0,0,0,19,0,26.59,26.59,0,0,1,22.32.43,13.82,13.82,0,0,0,6.42,1.61c9.05,0,16.57-9.11,18.14-21.13a17.38,17.38,0,0,1-4.52-4.88c-5.31-8.54-13.52-14-22.75-14s-17.33,5.42-22.64,13.88a17.45,17.45,0,0,1-15,8.25h-.23C241.17,239.4,234.93,245.18,231.89,253.59Z"/></svg>